<svg xmlns="http://www.w3.org/2000/svg" xmlns:xlink="http://www.w3.org/1999/xlink" width="500" zoomAndPan="magnify" viewBox="0 0 375 374.999991" height="500" preserveAspectRatio="xMidYMid meet" version="1.2"><defs><clipPath id="f693ed37ca"><path d="M 130.992188 112.480469 L 280.992188 112.480469 L 280.992188 262.480469 L 130.992188 262.480469 Z M 130.992188 112.480469 "/></clipPath><clipPath id="919e82db7c"><path d="M 205.992188 112.480469 C 164.574219 112.480469 130.992188 146.058594 130.992188 187.480469 C 130.992188 228.902344 164.574219 262.480469 205.992188 262.480469 C 247.414062 262.480469 280.992188 228.902344 280.992188 187.480469 C 280.992188 146.058594 247.414062 112.480469 205.992188 112.480469 Z M 205.992188 112.480469 "/></clipPath></defs><g id="776087c498"><rect x="0" width="375" y="0" height="374.999991" style="fill:#ffffff;fill-opacity:1;stroke:none;"/><rect x="0" width="375" y="0" height="374.999991" style="fill:#000000;fill-opacity:1;stroke:none;"/><g clip-rule="nonzero" clip-path="url(#f693ed37ca)"><g clip-rule="nonzero" clip-path="url(#919e82db7c)"><path style="fill:none;stroke-width:10;stroke-linecap:butt;stroke-linejoin:miter;stroke:#ffffff;stroke-opacity:1;stroke-miterlimit:4;" d="M 100.021208 -0.00056315 C 44.7843 -0.00056315 -0.00224106 44.780768 -0.00224106 100.022886 C -0.00224106 155.265003 44.7843 200.046335 100.021208 200.046335 C 155.263325 200.046335 200.044657 155.265003 200.044657 100.022886 C 200.044657 44.780768 155.263325 -0.00056315 100.021208 -0.00056315 Z M 100.021208 -0.00056315 " transform="matrix(0.749824,0,0,0.749824,130.993868,112.480891)"/></g></g><g style="fill:#ffffff;fill-opacity:1;"><g transform="translate(110.67273, 260.006225)"><path style="stroke:none" d="M 127.4375 -90.96875 C 128.257812 -91.789062 129.046875 -91.960938 129.796875 -91.484375 C 130.546875 -91.003906 130.507812 -90.351562 129.6875 -89.53125 C 125.1875 -84.34375 120.203125 -79.253906 114.734375 -74.265625 C 109.273438 -69.285156 103.539062 -65.019531 97.53125 -61.46875 C 92.0625 -58.320312 86.898438 -56.375 82.046875 -55.625 C 77.203125 -54.875 73.34375 -55.96875 70.46875 -58.90625 C 67.601562 -61.84375 66.242188 -67.269531 66.390625 -75.1875 C 66.660156 -80.519531 65.632812 -83.015625 63.3125 -82.671875 C 60.988281 -82.328125 58.050781 -80.175781 54.5 -76.21875 C 52.445312 -73.894531 50.460938 -71.367188 48.546875 -68.640625 C 46.640625 -65.910156 44.59375 -63.109375 42.40625 -60.234375 C 38.039062 -54.773438 34.59375 -52.382812 32.0625 -53.0625 C 29.539062 -53.75 28.484375 -56.003906 28.890625 -59.828125 C 29.160156 -62.691406 29.875 -66.140625 31.03125 -70.171875 C 32.195312 -74.203125 33.050781 -77.992188 33.59375 -81.546875 C 34.414062 -86.328125 34.109375 -89.363281 32.671875 -90.65625 C 31.242188 -91.957031 29.195312 -91.785156 26.53125 -90.140625 C 23.863281 -88.503906 20.894531 -85.570312 17.625 -81.34375 C 14.882812 -77.65625 12.25 -73.660156 9.71875 -69.359375 C 7.195312 -65.054688 4.8125 -60.957031 2.5625 -57.0625 C 0.3125 -53.164062 -1.769531 -49.988281 -3.6875 -47.53125 C -6.144531 -44.53125 -8.363281 -43.0625 -10.34375 -43.125 C -12.320312 -43.195312 -13.453125 -44.53125 -13.734375 -47.125 C -14.003906 -50.675781 -13.421875 -55.21875 -11.984375 -60.75 C -10.546875 -66.28125 -8.703125 -71.878906 -6.453125 -77.546875 C -4.203125 -83.210938 -1.984375 -88.03125 0.203125 -92 C 1.023438 -93.363281 2.015625 -94.179688 3.171875 -94.453125 C 4.335938 -94.722656 5.296875 -94.515625 6.046875 -93.828125 C 6.796875 -93.148438 6.757812 -92.128906 5.9375 -90.765625 C 4.570312 -88.171875 2.929688 -84.789062 1.015625 -80.625 C -0.890625 -76.457031 -2.695312 -72.117188 -4.40625 -67.609375 C -6.113281 -63.097656 -7.410156 -59.035156 -8.296875 -55.421875 C -9.179688 -51.804688 -9.285156 -49.242188 -8.609375 -47.734375 C -7.097656 -49.097656 -5.21875 -51.796875 -2.96875 -55.828125 C -0.71875 -59.859375 1.804688 -64.363281 4.609375 -69.34375 C 7.410156 -74.332031 10.3125 -78.945312 13.3125 -83.1875 C 17.957031 -89.601562 22.5 -93.867188 26.9375 -95.984375 C 31.375 -98.109375 34.925781 -98.078125 37.59375 -95.890625 C 40.257812 -93.703125 41.113281 -89.332031 40.15625 -82.78125 C 39.613281 -78.539062 38.691406 -74.234375 37.390625 -69.859375 C 36.097656 -65.492188 35.453125 -62.285156 35.453125 -60.234375 C 37.222656 -62.015625 39.40625 -64.75 42 -68.4375 C 44.59375 -72.125 47.394531 -75.675781 50.40625 -79.09375 C 53.957031 -82.914062 57.4375 -85.609375 60.84375 -87.171875 C 64.257812 -88.742188 67.09375 -88.78125 69.34375 -87.28125 C 71.601562 -85.78125 72.597656 -82.296875 72.328125 -76.828125 C 72.054688 -72.460938 72.429688 -68.671875 73.453125 -65.453125 C 74.472656 -62.242188 76.757812 -60.4375 80.3125 -60.03125 C 83.863281 -59.625 89.191406 -61.332031 96.296875 -65.15625 C 101.898438 -68.15625 107.429688 -72.046875 112.890625 -76.828125 C 118.359375 -81.609375 123.207031 -86.320312 127.4375 -90.96875 Z M 127.4375 -90.96875 "/></g></g><g style="fill:#ffffff;fill-opacity:1;"><g transform="translate(229.105911, 260.006225)"><path style="stroke:none" d="M 0.40625 -56.140625 C 0 -55.179688 0.0351562 -54.289062 0.515625 -53.46875 C 0.992188 -52.65625 1.707031 -52.25 2.65625 -52.25 C 3.75 -52.25 4.773438 -52.65625 5.734375 -53.46875 C 6.691406 -54.289062 7.375 -55.179688 7.78125 -56.140625 C 8.0625 -57.234375 8.128906 -58.492188 7.984375 -59.921875 C 7.847656 -61.359375 7.234375 -62.078125 6.140625 -62.078125 C 5.191406 -62.078125 4.066406 -61.359375 2.765625 -59.921875 C 1.460938 -58.492188 0.675781 -57.234375 0.40625 -56.140625 Z M 0.40625 -56.140625 "/></g></g><g style="fill:#ffffff;fill-opacity:1;"><g transform="translate(145.517925, 228.33731)"><path style="stroke:none" d="M 0.1875 2.515625 C -0.0507812 2.515625 -0.257812 2.5 -0.4375 2.46875 C -0.613281 2.445312 -0.765625 2.421875 -0.890625 2.390625 L -0.890625 0.875 C -0.765625 0.90625 -0.628906 0.929688 -0.484375 0.953125 C -0.347656 0.984375 -0.195312 1 -0.03125 1 C 0.175781 1 0.363281 0.957031 0.53125 0.875 C 0.695312 0.789062 0.828125 0.640625 0.921875 0.421875 C 1.023438 0.203125 1.078125 -0.117188 1.078125 -0.546875 L 1.078125 -8.5625 L 2.890625 -8.5625 L 2.890625 -0.546875 C 2.890625 0.179688 2.773438 0.769531 2.546875 1.21875 C 2.316406 1.675781 2 2.003906 1.59375 2.203125 C 1.1875 2.410156 0.71875 2.515625 0.1875 2.515625 Z M 0.1875 2.515625 "/></g></g><g style="fill:#ffffff;fill-opacity:1;"><g transform="translate(150.090584, 228.33731)"><path style="stroke:none" d="M 8.046875 -8.5625 L 8.046875 -3.03125 C 8.046875 -2.4375 7.914062 -1.898438 7.65625 -1.421875 C 7.394531 -0.953125 7.003906 -0.578125 6.484375 -0.296875 C 5.960938 -0.015625 5.300781 0.125 4.5 0.125 C 3.363281 0.125 2.5 -0.164062 1.90625 -0.75 C 1.3125 -1.332031 1.015625 -2.097656 1.015625 -3.046875 L 1.015625 -8.5625 L 2.828125 -8.5625 L 2.828125 -3.328125 C 2.828125 -2.617188 2.972656 -2.117188 3.265625 -1.828125 C 3.554688 -1.546875 3.984375 -1.40625 4.546875 -1.40625 C 4.941406 -1.40625 5.265625 -1.472656 5.515625 -1.609375 C 5.765625 -1.742188 5.945312 -1.953125 6.0625 -2.234375 C 6.175781 -2.523438 6.234375 -2.890625 6.234375 -3.328125 L 6.234375 -8.5625 Z M 8.046875 -8.5625 "/></g></g><g style="fill:#ffffff;fill-opacity:1;"><g transform="translate(159.760898, 228.33731)"><path style="stroke:none" d="M 8.671875 0 L 6.375 0 L 2.640625 -6.484375 L 2.59375 -6.484375 C 2.601562 -6.210938 2.613281 -5.9375 2.625 -5.65625 C 2.644531 -5.382812 2.660156 -5.113281 2.671875 -4.84375 C 2.679688 -4.570312 2.691406 -4.300781 2.703125 -4.03125 L 2.703125 0 L 1.078125 0 L 1.078125 -8.5625 L 3.375 -8.5625 L 7.09375 -2.15625 L 7.125 -2.15625 C 7.125 -2.414062 7.113281 -2.675781 7.09375 -2.9375 C 7.082031 -3.195312 7.070312 -3.457031 7.0625 -3.71875 C 7.0625 -3.988281 7.054688 -4.253906 7.046875 -4.515625 L 7.046875 -8.5625 L 8.671875 -8.5625 Z M 8.671875 0 "/></g></g><g style="fill:#ffffff;fill-opacity:1;"><g transform="translate(170.116759, 228.33731)"><path style="stroke:none" d="M 4.328125 -4.8125 L 7.734375 -4.8125 L 7.734375 -0.375 C 7.285156 -0.21875 6.816406 -0.09375 6.328125 0 C 5.847656 0.0820312 5.300781 0.125 4.6875 0.125 C 3.832031 0.125 3.109375 -0.0390625 2.515625 -0.375 C 1.921875 -0.71875 1.46875 -1.21875 1.15625 -1.875 C 0.851562 -2.53125 0.703125 -3.335938 0.703125 -4.296875 C 0.703125 -5.191406 0.875 -5.96875 1.21875 -6.625 C 1.5625 -7.28125 2.066406 -7.785156 2.734375 -8.140625 C 3.398438 -8.503906 4.210938 -8.6875 5.171875 -8.6875 C 5.628906 -8.6875 6.078125 -8.632812 6.515625 -8.53125 C 6.953125 -8.4375 7.351562 -8.3125 7.71875 -8.15625 L 7.109375 -6.703125 C 6.847656 -6.835938 6.550781 -6.945312 6.21875 -7.03125 C 5.882812 -7.125 5.53125 -7.171875 5.15625 -7.171875 C 4.632812 -7.171875 4.175781 -7.050781 3.78125 -6.8125 C 3.394531 -6.570312 3.09375 -6.234375 2.875 -5.796875 C 2.664062 -5.359375 2.5625 -4.847656 2.5625 -4.265625 C 2.5625 -3.703125 2.640625 -3.203125 2.796875 -2.765625 C 2.953125 -2.335938 3.191406 -2 3.515625 -1.75 C 3.847656 -1.507812 4.273438 -1.390625 4.796875 -1.390625 C 5.054688 -1.390625 5.273438 -1.398438 5.453125 -1.421875 C 5.628906 -1.453125 5.796875 -1.484375 5.953125 -1.515625 L 5.953125 -3.296875 L 4.328125 -3.296875 Z M 4.328125 -4.8125 "/></g></g><g style="fill:#ffffff;fill-opacity:1;"><g transform="translate(179.406214, 228.33731)"><path style="stroke:none" d="M 0.359375 -2.484375 L 0.359375 -3.953125 L 3.5 -3.953125 L 3.5 -2.484375 Z M 0.359375 -2.484375 "/></g></g><g style="fill:#ffffff;fill-opacity:1;"><g transform="translate(183.867544, 228.33731)"><path style="stroke:none" d="M 11.609375 -8.5625 L 9.421875 0 L 7.359375 0 L 6.1875 -4.5 C 6.164062 -4.582031 6.132812 -4.710938 6.09375 -4.890625 C 6.0625 -5.066406 6.019531 -5.257812 5.96875 -5.46875 C 5.925781 -5.675781 5.890625 -5.875 5.859375 -6.0625 C 5.828125 -6.25 5.804688 -6.394531 5.796875 -6.5 C 5.785156 -6.394531 5.757812 -6.25 5.71875 -6.0625 C 5.6875 -5.882812 5.648438 -5.691406 5.609375 -5.484375 C 5.578125 -5.273438 5.539062 -5.078125 5.5 -4.890625 C 5.457031 -4.710938 5.425781 -4.578125 5.40625 -4.484375 L 4.25 0 L 2.1875 0 L 0 -8.5625 L 1.78125 -8.5625 L 2.890625 -3.890625 C 2.921875 -3.753906 2.953125 -3.585938 2.984375 -3.390625 C 3.023438 -3.191406 3.066406 -2.984375 3.109375 -2.765625 C 3.148438 -2.554688 3.1875 -2.351562 3.21875 -2.15625 C 3.257812 -1.957031 3.285156 -1.785156 3.296875 -1.640625 C 3.316406 -1.796875 3.34375 -1.972656 3.375 -2.171875 C 3.40625 -2.367188 3.4375 -2.566406 3.46875 -2.765625 C 3.507812 -2.972656 3.550781 -3.164062 3.59375 -3.34375 C 3.632812 -3.519531 3.671875 -3.660156 3.703125 -3.765625 L 4.953125 -8.5625 L 6.65625 -8.5625 L 7.90625 -3.765625 C 7.9375 -3.660156 7.96875 -3.519531 8 -3.34375 C 8.039062 -3.164062 8.082031 -2.972656 8.125 -2.765625 C 8.164062 -2.554688 8.203125 -2.351562 8.234375 -2.15625 C 8.265625 -1.957031 8.285156 -1.785156 8.296875 -1.640625 C 8.328125 -1.835938 8.363281 -2.078125 8.40625 -2.359375 C 8.457031 -2.640625 8.507812 -2.914062 8.5625 -3.1875 C 8.625 -3.46875 8.675781 -3.703125 8.71875 -3.890625 L 9.8125 -8.5625 Z M 11.609375 -8.5625 "/></g></g><g style="fill:#ffffff;fill-opacity:1;"><g transform="translate(196.069108, 228.33731)"><path style="stroke:none" d="M 8.859375 -4.296875 C 8.859375 -3.640625 8.773438 -3.039062 8.609375 -2.5 C 8.441406 -1.957031 8.191406 -1.488281 7.859375 -1.09375 C 7.523438 -0.707031 7.101562 -0.40625 6.59375 -0.1875 C 6.082031 0.0195312 5.476562 0.125 4.78125 0.125 C 4.082031 0.125 3.472656 0.0195312 2.953125 -0.1875 C 2.441406 -0.40625 2.019531 -0.707031 1.6875 -1.09375 C 1.351562 -1.488281 1.101562 -1.957031 0.9375 -2.5 C 0.78125 -3.039062 0.703125 -3.644531 0.703125 -4.3125 C 0.703125 -5.195312 0.847656 -5.96875 1.140625 -6.625 C 1.429688 -7.28125 1.878906 -7.789062 2.484375 -8.15625 C 3.085938 -8.519531 3.851562 -8.703125 4.78125 -8.703125 C 5.71875 -8.703125 6.484375 -8.519531 7.078125 -8.15625 C 7.679688 -7.789062 8.128906 -7.273438 8.421875 -6.609375 C 8.710938 -5.953125 8.859375 -5.179688 8.859375 -4.296875 Z M 2.609375 -4.296875 C 2.609375 -3.703125 2.679688 -3.1875 2.828125 -2.75 C 2.972656 -2.320312 3.207031 -1.988281 3.53125 -1.75 C 3.851562 -1.519531 4.269531 -1.40625 4.78125 -1.40625 C 5.289062 -1.40625 5.707031 -1.519531 6.03125 -1.75 C 6.351562 -1.988281 6.585938 -2.320312 6.734375 -2.75 C 6.878906 -3.1875 6.953125 -3.703125 6.953125 -4.296875 C 6.953125 -5.191406 6.78125 -5.894531 6.4375 -6.40625 C 6.101562 -6.925781 5.550781 -7.1875 4.78125 -7.1875 C 4.269531 -7.1875 3.851562 -7.070312 3.53125 -6.84375 C 3.207031 -6.613281 2.972656 -6.28125 2.828125 -5.84375 C 2.679688 -5.414062 2.609375 -4.898438 2.609375 -4.296875 Z M 2.609375 -4.296875 "/></g></g><g style="fill:#ffffff;fill-opacity:1;"><g transform="translate(206.219891, 228.33731)"><path style="stroke:none" d="M 8.859375 -4.296875 C 8.859375 -3.640625 8.773438 -3.039062 8.609375 -2.5 C 8.441406 -1.957031 8.191406 -1.488281 7.859375 -1.09375 C 7.523438 -0.707031 7.101562 -0.40625 6.59375 -0.1875 C 6.082031 0.0195312 5.476562 0.125 4.78125 0.125 C 4.082031 0.125 3.472656 0.0195312 2.953125 -0.1875 C 2.441406 -0.40625 2.019531 -0.707031 1.6875 -1.09375 C 1.351562 -1.488281 1.101562 -1.957031 0.9375 -2.5 C 0.78125 -3.039062 0.703125 -3.644531 0.703125 -4.3125 C 0.703125 -5.195312 0.847656 -5.96875 1.140625 -6.625 C 1.429688 -7.28125 1.878906 -7.789062 2.484375 -8.15625 C 3.085938 -8.519531 3.851562 -8.703125 4.78125 -8.703125 C 5.71875 -8.703125 6.484375 -8.519531 7.078125 -8.15625 C 7.679688 -7.789062 8.128906 -7.273438 8.421875 -6.609375 C 8.710938 -5.953125 8.859375 -5.179688 8.859375 -4.296875 Z M 2.609375 -4.296875 C 2.609375 -3.703125 2.679688 -3.1875 2.828125 -2.75 C 2.972656 -2.320312 3.207031 -1.988281 3.53125 -1.75 C 3.851562 -1.519531 4.269531 -1.40625 4.78125 -1.40625 C 5.289062 -1.40625 5.707031 -1.519531 6.03125 -1.75 C 6.351562 -1.988281 6.585938 -2.320312 6.734375 -2.75 C 6.878906 -3.1875 6.953125 -3.703125 6.953125 -4.296875 C 6.953125 -5.191406 6.78125 -5.894531 6.4375 -6.40625 C 6.101562 -6.925781 5.550781 -7.1875 4.78125 -7.1875 C 4.269531 -7.1875 3.851562 -7.070312 3.53125 -6.84375 C 3.207031 -6.613281 2.972656 -6.28125 2.828125 -5.84375 C 2.679688 -5.414062 2.609375 -4.898438 2.609375 -4.296875 Z M 2.609375 -4.296875 "/></g></g></g></svg>